<svg width="30" height="27" viewBox="0 0 30 27" fill="none" xmlns="http://www.w3.org/2000/svg">
<path d="M21.0766 8H0.451594C0.0390941 8 -0.144239 8.50417 0.130761 8.77917L7.46409 16.0208L9.98493 26.4708C10.0766 26.8833 10.6266 26.9292 10.8099 26.6083L21.4891 8.6875C21.6724 8.36667 21.4433 8 21.0766 8ZM2.69743 9.375H18.0516L8.51826 14.6458C8.33493 14.7375 8.10576 14.6917 7.96826 14.5542L2.69743 9.375V9.375ZM10.8099 23.95L8.97659 16.3417C8.93076 16.1583 9.02243 15.9292 9.20576 15.8375L18.7849 10.5208L10.8099 23.95V23.95Z" fill="#262626"/>
<circle cx="21" cy="9" r="9" fill="#DC565B"/>
<path d="M23.306 5.536V4.636H19.106L18.314 9.052L19.19 9.1C19.39 8.86 19.618 8.668 19.874 8.524C20.138 8.372 20.438 8.296 20.774 8.296C21.062 8.296 21.322 8.344 21.554 8.44C21.794 8.536 21.998 8.672 22.166 8.848C22.334 9.016 22.462 9.22 22.55 9.46C22.646 9.692 22.694 9.948 22.694 10.228C22.694 10.564 22.646 10.86 22.55 11.116C22.454 11.364 22.322 11.572 22.154 11.74C21.994 11.908 21.802 12.036 21.578 12.124C21.362 12.204 21.134 12.244 20.894 12.244C20.638 12.244 20.402 12.208 20.186 12.136C19.978 12.056 19.794 11.948 19.634 11.812C19.482 11.668 19.358 11.504 19.262 11.32C19.174 11.128 19.122 10.924 19.106 10.708H18.086C18.094 11.092 18.17 11.436 18.314 11.74C18.458 12.044 18.654 12.3 18.902 12.508C19.15 12.708 19.434 12.864 19.754 12.976C20.082 13.08 20.43 13.132 20.798 13.132C21.294 13.132 21.726 13.056 22.094 12.904C22.47 12.744 22.782 12.532 23.03 12.268C23.278 12.004 23.462 11.704 23.582 11.368C23.71 11.024 23.774 10.672 23.774 10.312C23.774 9.824 23.702 9.4 23.558 9.04C23.414 8.672 23.218 8.368 22.97 8.128C22.722 7.88 22.43 7.696 22.094 7.576C21.758 7.456 21.402 7.396 21.026 7.396C20.738 7.396 20.446 7.448 20.15 7.552C19.862 7.648 19.626 7.8 19.442 8.008L19.418 7.984L19.874 5.536H23.306Z" fill="white"/>
</svg>
